<?xml version="1.0" encoding="UTF-8"?>
<svg width="48px" height="48px" viewBox="0 0 48 48" version="1.1" xmlns="http://www.w3.org/2000/svg" xmlns:xlink="http://www.w3.org/1999/xlink">
    <!-- Generator: Sketch 61 (89581) - https://sketch.com -->
    <title>模型训练</title>
    <desc>Created with Sketch.</desc>
    <g id="页面-1" stroke="none" stroke-width="1" fill="none" fill-rule="evenodd">
        <g id="-1-操作台-总览⻚面" transform="translate(-730.000000, -274.000000)">
            <g id="编组-3" transform="translate(643.000000, 274.000000)">
                <g id="模型训练">
                    <g transform="translate(87.000000, 0.000000)">
                        <g>
                            <g>
                                <circle id="椭圆形备份-4" stroke="#000000" cx="24" cy="22.5" r="22"></circle>
                                <path d="M23.8333333,33 L23.8333333,42 L24.3333333,41.5 L23.3333333,41.5 L23.8333333,42 L23.8333333,33 Z M23.8333333,33 L23.8333333,24 L23.3333333,24.5 L24.3333333,24.5 L23.8333333,24 L23.8333333,33 Z M13.398794,18.7717045 L22.3867345,23.1554159 L22.1565231,22.4868334 L21.7181519,23.3856274 L22.3867345,23.1554159 L13.398794,18.7717045 Z M13.398794,18.7717045 L4.41085358,14.387993 L4.64106503,15.0565756 L5.07943618,14.1577816 L4.41085358,14.387993 L13.398794,18.7717045 Z M33.8333333,18.3333333 L25.7441869,22.2786737 L26.4127695,22.5088851 L25.9743984,21.6100911 L25.7441869,22.2786737 L33.8333333,18.3333333 Z M33.8333333,18.3333333 L41.9224798,14.387993 L41.2538972,14.1577816 L41.6922683,15.0565756 L41.9224798,14.387993 L33.8333333,18.3333333 Z" id="形状结合" stroke="#000000" fill="#00B365"></path>
                                <circle id="椭圆形" fill="#00B365" cx="4.5" cy="13.5" r="4.5"></circle>
                                <circle id="椭圆形备份-2" fill="#00B365" cx="24" cy="22.5" r="4.5"></circle>
                                <circle id="椭圆形备份-3" fill="#00B365" cx="43.5" cy="13.5" r="4.5"></circle>
                                <circle id="椭圆形备份-9" fill="#00B365" cx="24" cy="43.5" r="4.5"></circle>
                            </g>
                        </g>
                    </g>
                </g>
            </g>
        </g>
    </g>
</svg>